<svg version="1.1" id="Layer_1" xmlns="http://www.w3.org/2000/svg" xmlns:xlink="http://www.w3.org/1999/xlink" x="0px" y="0px"
	 viewBox="0 0 80 80" style="enable-background:new 0 0 80 80;" xml:space="preserve">
<style type="text/css">
	.st0{fill:#FA7014;}
	.st1{fill:#FFFFFF;}
	.st2{fill:none;}
</style>
<g id="XMLID_18_">
	<path id="XMLID_129_" fill="#FA7014" d="M80,18.3363876v43.3353271C80,71.7911224,71.7911758,80,61.663662,80H18.3282833
		C8.2088757,80,0,71.7911224,0,61.6717148V18.3363876C0,8.2088757,8.2088757,0,18.3282833,0H61.663662
		C71.7911758,0,80,8.2088757,80,18.3363876z"/>
</g>
<g id="XMLID_2_">
	<rect id="XMLID_128_" x="34.0155411" y="28.7221966" fill="#FFFFFF" width="14.2338142" height="3.7500892"/>
</g>
<g id="XMLID_5_">
	<rect id="XMLID_127_" x="34.0155411" y="34.9606972" fill="#FFFFFF" width="14.2338142" height="3.7500892"/>
</g>
<g id="XMLID_6_">
	<path id="XMLID_8_" fill="none" d="M51.9442368,37.9639893V22.9046974H35.3404045
		c-2.772316,0-5.0197811,2.2474174-5.0197811,5.0197315v16.6038342h15.0593395
		C49.0053101,44.5282631,51.9442368,41.5893364,51.9442368,37.9639893z"/>
</g>
<g id="XMLID_14_">
	<path id="XMLID_10_" fill="#FFFFFF" d="M30.3206234,54.181675h18.1483784c7.2507439,0,13.1286469-5.8779068,13.1286469-13.1286469
		V13.2543001v-0.0030136H30.3206234c-5.3314171,0-9.6533623,4.3219461-9.6533623,9.6533613v0.0000496V54.181675v15.4454384
		h0.0016308h9.6517315V54.181675z M30.3206234,27.9244289c0-2.7723141,2.2474651-5.0197315,5.0197811-5.0197315h16.6038322
		v15.0592918c0,3.6253471-2.9389267,6.5642738-6.5642738,6.5642738H30.3206234V27.9244289z"/>
</g>
</svg>
